<?xml version="1.0" encoding="UTF-8"?>
<svg id="TextLogo" xmlns="http://www.w3.org/2000/svg" version="1.1" viewBox="0 0 106 120">
  <defs>
    <style>
      .cls-1 {
        fill: #ce3348;
        stroke-width: 0px;
      }
    </style>
  </defs>
  <path class="cls-1" d="M89,90c-1.8-1.3-3.1-3.2-3.9-5.7l-20.8-63.4h-30.7c-1.8,2.2-2.7,4.9-2.7,8.1,4.5,0,8.3.5,11.3,1.5l-18.4,54.2c-.8,2.5-2.1,4.3-3.9,5.5-1.8,1.2-3.6,1.8-5.7,1.8,0,2.9.9,5.3,2.6,7.2h25c1.7-1.9,2.6-4.2,2.6-7.2-2.2,0-4-.4-5.3-1.3s-1.9-2.3-1.9-4.4,0-1.4.3-2.2c.2-.8.4-1.7.7-2.7l.7-2.3h25.1l.7,2.3c.3,1.1.5,2,.6,2.9.1.9.2,1.7.2,2.3,0,1.9-.6,3.2-1.7,4.1-1.2.9-2.7,1.3-4.6,1.3,0,2.9.9,5.3,2.6,7.2h30.4c1.7-1.9,2.6-4.2,2.6-7.2-1.9,0-3.8-.7-5.6-2h0ZM65.5,54.7l-1.5.4c-4,1-7.1,4.1-8.1,8.1l-.4,1.5c-.3,1-1.7,1-2,0l-.4-1.5c-1-4-4.1-7.1-8.1-8.1l-1.5-.4c-1-.3-1-1.7,0-2l1.5-.4c4-1,7.1-4.1,8.1-8.1l.4-1.5c.3-1,1.7-1,2,0l.4,1.5c1,4,4.1,7.1,8.1,8.1l1.5.4c1,.3,1,1.7,0,2Z"/>
</svg>